#!OML:ASF E:\Mandelcareful walks\Project 1\Capture day 1\Session 1\Subject1.ASF
:FULLY-SPECIFIED
:DEGREES
631
root 12.4422 12.4037 0.676184 -61.1997 -82.6702 89.4843
lowerback 37.9275 1.91702 5.03091
upperback 11.3097 2.91238 1.03313
thorax -5.84163 0.924467 -2.53452
lowerneck -31.8018 -11.2059 -8.72871
upperneck 23.4826 -13.3874 5.3749
head 14.2181 -5.73533 0.686509
rclavicle -6.36111e-015 2.70347e-014
rhumerus 41.454 -5.01762 -75.6317
rradius 44.1278
rwrist -40.3425
rhand -21.5319 -41.4148
rfingers 7.12502
rthumb 4.86074 -71.339
lclavicle -6.36111e-015 2.70347e-014
lhumerus -58.3634 -36.9805 112.857
lradius 58.0272
lwrist 40.0625
lhand -11.6047 -14.4369
lfingers 7.12502
lthumb 14.438 15.0408
rfemur -89.8189 -34.6775 10.4162
rtibia 91.5916
rfoot -20.1216 0.236317
rtoes -15.9804
lfemur -88.2356 6.08309 -19.0014
ltibia 97.5275
lfoot -30.9767 2.72225
ltoes -13.5405
632
root 12.4211 12.4452 0.664737 -64.7934 -82.7687 92.8666
lowerback 37.8485 1.9056 5.00397
upperback 11.2893 2.88704 1.0936
thorax -5.84394 0.907289 -2.44669
lowerneck -31.8262 -11.1789 -8.88929
upperneck 23.6938 -13.3447 5.5436
head 14.34 -5.70017 0.782943
rclavicle 1.59028e-014 1.35174e-014
rhumerus 40.9074 -4.29657 -74.9098
rradius 44.3586
rwrist -40.6426
rhand -21.2627 -41.8695
rfingers 7.12502
rthumb 5.12066 -71.7876
lclavicle 1.59028e-014 1.35174e-014
lhumerus -58.9225 -37.0386 113.277
lradius 58.1761
lwrist 40.1561
lhand -11.6159 -14.7484
lfingers 7.12502
lthumb 14.4271 14.7301
rfemur -89.3265 -34.223 10.329
rtibia 91.251
rfoot -20.1036 0.318369
rtoes -15.5797
lfemur -87.5241 6.37424 -18.9191
ltibia 97.198
lfoot -31.038 2.88734
ltoes -13.7016
633
root 12.4016 12.4885 0.652793 -68.7973 -82.7872 96.7064
lowerback 37.6962 1.94172 4.90213
upperback 11.2169 2.89888 1.11846
thorax -5.8803 0.909703 -2.37169
lowerneck -31.73 -11.3057 -9.33081
upperneck 23.9905 -13.5409 6.11042
head 14.5597 -5.73142 1.02783
rclavicle -7.15625e-014 -5.96354e-014
rhumerus 40.1754 -3.47244 -74.0856
rradius 44.6671
rwrist -41.1649
rhand -20.9182 -41.4803
rfingers 7.12502
rthumb 5.45333 -71.3902
lclavicle -7.15625e-014 -5.96354e-014
lhumerus -59.756 -37.2081 113.851
lradius 58.3358
lwrist 40.2863
lhand -11.8456 -15.1891
lfingers 7.12502
lthumb 14.2058 14.3051
rfemur -88.8966 -33.6995 10.183
rtibia 90.8708
rfoot -20.0642 0.298178
rtoes -15.0266
lfemur -86.8886 6.66934 -18.845
ltibia 96.785
lfoot -31.0016 2.91103
ltoes -13.3418
634
root 12.3826 12.5413 0.638741 -73.0371 -82.7967 100.511
lowerback 37.8212 2.01123 4.77355
upperback 11.2195 2.9394 1.22766
thorax -5.92978 0.915217 -2.20578
lowerneck -31.8843 -11.3722 -9.56609
upperneck 24.3727 -13.5573 6.13917
head 14.7801 -5.7414 1.06042
rclavicle 1.04958e-013 3.18055e-014
rhumerus 39.4711 -2.86618 -73.7571
rradius 45.174
rwrist -41.2707
rhand -20.7244 -40.6227
rfingers 7.12502
rthumb 5.64041 -70.5276
lclavicle 1.04958e-013 3.18055e-014
lhumerus -60.5611 -37.3036 114.431
lradius 58.6621
lwrist 40.2255
lhand -11.7217 -14.9828
lfingers 7.12502
lthumb 14.3251 14.503
rfemur -88.0563 -33.1121 9.92647
rtibia 90.433
rfoot -20.0878 0.178471
rtoes -15.0701
lfemur -85.903 6.97804 -18.6835
ltibia 96.2936
lfoot -30.9804 2.80825
ltoes -12.7795
635
root 12.3597 12.614 0.622488 -77.0532 -82.8296 103.642
lowerback 38.5018 2.03068 4.7257
upperback 11.2903 2.94726 1.40885
thorax -6.08594 0.889457 -1.99864
lowerneck -32.1931 -11.2472 -9.31682
upperneck 24.8107 -13.2456 5.34342
head 14.9055 -5.69171 0.759228
rclavicle 2.54444e-014 -2.38542e-015
rhumerus 38.6557 -2.23949 -73.5469
rradius 45.9731
rwrist -41.1906
rhand -20.4729 -40.79
rfingers 7.12502
rthumb 5.8833 -70.6883
lclavicle 2.54444e-014 -2.38542e-015
lhumerus -61.3367 -37.2739 114.914
lradius 59.1656
lwrist 39.8092
lhand -11.2305 -14.7087
lfingers 7.12502
lthumb 14.7984 14.743
rfemur -86.3847 -32.4957 9.43668
rtibia 89.9174
rfoot -20.332 0.136724
rtoes -15.2165
lfemur -84.1938 7.24342 -18.4902
ltibia 95.7264
lfoot -31.1491 2.92227
ltoes -12.9655
636
root 12.3409 12.6603 0.607257 -80.0433 -82.6766 106.289
lowerback 38.378 2.09335 4.61333
upperback 11.373 2.96781 1.49408
thorax -5.96461 0.894289 -1.85467
lowerneck -32.3225 -11.1849 -9.06733
upperneck 25.069 -13.0984 4.76627
head 14.9564 -5.68712 0.514386
rclavicle 6.36111e-015 3.97569e-015
rhumerus 38.3462 -1.63633 -72.4912
rradius 46.2634
rwrist -41.7778
rhand -20.1315 -41.3658
rfingers 7.12502
rthumb 6.2129 -71.2547
lclavicle 6.36111e-015 3.97569e-015
lhumerus -62.403 -37.5195 115.471
lradius 59.8067
lwrist 39.3805
lhand -11.2592 -15.4155
lfingers 7.12502
lthumb 14.7708 14.0382
rfemur -85.616 -32.0964 9.11501
rtibia 89.5184
rfoot -20.4248 0.162925
rtoes -15.0234
lfemur -83.3304 7.38352 -18.5228
ltibia 95.2729
lfoot -31.1742 3.2366
ltoes -13.4273
